<svg xmlns="http://www.w3.org/2000/svg" viewBox="0 0 700 120">
  <defs>
    <style>
      .a {
        fill: #581845;
      }

      .b {
        fill: #900c3f;
      }

      .c {
        fill: #c70039;
      }

      .d {
        fill: #ffc30f;
      }

      .e {
        fill: #328746;
      }

      .f, .g {
        fill: none;
        stroke: #328746;
        stroke-linecap: round;
        stroke-miterlimit: 10;
      }

      .f {
        stroke-width: 3px;
      }

      .g {
        stroke-width: 2px;
      }

      .h {
        fill: #ffe6fe;
      }

      .i {
        fill: #ffb3ff;
      }
    </style>
  </defs>
  <title>header_background</title>
  <rect class="a" width="700" height="120"/>
  <g>
    <polygon class="b" points="240.18 120 333.87 98.87 493.43 103.77 551.34 120 240.18 120"/>
    <rect class="b" x="366.02" y="5.63" width="58.13" height="104.22" rx="12"/>
    <rect class="b" x="437.65" y="36.66" width="46.12" height="77.82" rx="12"/>
  </g>
  <g>
    <polygon class="c" points="266.22 120 0 120 0 78.11 71.89 69.53 74.11 69.27 131.62 73.5 149.32 74.8 227.85 90.28 266.22 120"/>
    <rect class="c" x="71.89" y="7.32" width="59.73" height="88.49" rx="12"/>
  </g>
  <g>
    <path class="d" d="M30,12V120H0V0H18A12,12,0,0,1,30,12Z"/>
    <rect class="d" x="49" y="28" width="37" height="92" rx="12"/>
    <path class="d" d="M30,94.18,67,98l60-9s35,14,69,12,127,13,147,13l60.67,6H0Z"/>
  </g>
  <g>
    <rect class="e" x="150" y="77" width="3" height="24" rx="1.5"/>
    <rect class="e" x="161" y="88" width="3" height="16" rx="1.5"/>
    <path class="f" d="M152,88s5,1,5-5"/>
    <path class="f" d="M151,93s-5,0-5-5"/>
    <path class="g" d="M162,98s4,1,4-4"/>
  </g>
  <g>
    <path class="e" d="M75.83,92.31v27.53a.41.41,0,0,1,0,.16H72a.41.41,0,0,1,0-.16V92.31a1.5,1.5,0,0,1,1.5-1.5h.81A1.5,1.5,0,0,1,75.83,92.31Z"/>
    <path class="e" d="M89.83,106.31V120H86V106.31a1.5,1.5,0,0,1,1.5-1.5h.82A1.5,1.5,0,0,1,89.83,106.31Z"/>
    <path class="f" d="M74.56,104.81s6.36,1.27,6.36-6.36"/>
    <path class="f" d="M73.29,111.17s-6.36,0-6.36-6.36"/>
    <path class="g" d="M87.28,117.53s5.09,1.27,5.09-5.09"/>
  </g>
  <g>
    <g>
      <path class="h" d="M118.92,87.65a3,3,0,0,0-2.25-.87s1.58-.39,2-.07c0,0-.45-.94-.82-1,0,0,1.24.24,1.36.52s.47.83.47.83A3,3,0,0,0,118.92,87.65Z"/>
      <path class="h" d="M120.28,86.91a2.83,2.83,0,0,1,.42-2.33s-1.17,1.12-1.11,1.62c0,0-.58-.87-.42-1.21,0,0-.44,1.16-.27,1.41s.47.83.47.83A3.22,3.22,0,0,1,120.28,86.91Z"/>
    </g>
    <g>
      <path class="i" d="M119.26,87.8a3.12,3.12,0,0,0-2.5-.26s1.47-.81,2-.61c0,0-.72-.81-1.11-.76,0,0,1.31-.09,1.51.14s.71.7.71.7A3.32,3.32,0,0,0,119.26,87.8Z"/>
      <path class="i" d="M120.13,87.32a3.08,3.08,0,0,1,1.6-1.91s-1.63.44-1.84.93c0,0-.06-1.08.26-1.31,0,0-1,.84-1,1.14s0,1,0,1A3.18,3.18,0,0,1,120.13,87.32Z"/>
    </g>
    <ellipse class="e" cx="120.98" cy="89.82" rx="3.14" ry="3.04" transform="translate(-18.12 31.9) rotate(-13.99)"/>
  </g>
</svg>
