<svg xmlns="http://www.w3.org/2000/svg" xmlns:xlink="http://www.w3.org/1999/xlink" viewBox="0 0 1920 540">
  <defs>
    <style>
      .a {
        fill: url(#a);
      }

      .b, .i {
        fill: #fff3d9;
      }

      .b {
        opacity: 0.25;
      }

      .c {
        fill: #c70039;
      }

      .d {
        opacity: 0.6;
      }

      .e {
        fill: #ffe6a9;
      }

      .f {
        fill: #900c3f;
      }

      .g {
        fill: #581845;
      }

      .h {
        opacity: 0.8;
      }

      .j {
        opacity: 0.7;
      }

      .k {
        fill: url(#b);
      }

      .l {
        fill: none;
        stroke: #581845;
        stroke-linecap: round;
        stroke-miterlimit: 10;
        stroke-width: 34px;
      }

      .m {
        fill: url(#c);
      }

      .n {
        opacity: 0.9;
      }

      .o {
        fill: url(#d);
      }
    </style>
    <linearGradient id="a" data-name="Namnlös övertoning 71" x1="959.68" y1="399.91" x2="960.65" y2="8.92" gradientUnits="userSpaceOnUse">
      <stop offset="0" stop-color="#fffb6a"/>
      <stop offset="0.14" stop-color="#ffc30f"/>
      <stop offset="0.25" stop-color="#ff8922"/>
      <stop offset="0.43" stop-color="#ff5733"/>
      <stop offset="0.98" stop-color="#581845"/>
    </linearGradient>
    <linearGradient id="b" data-name="Namnlös övertoning 85" x1="38.71" y1="357.16" x2="439.82" y2="341" gradientUnits="userSpaceOnUse">
      <stop offset="0" stop-color="#ffc30f" stop-opacity="0"/>
      <stop offset="1" stop-color="#fffccc" stop-opacity="0.5"/>
    </linearGradient>
    <linearGradient id="c" data-name="Namnlös övertoning 83" x1="1452.98" y1="330.72" x2="1919.13" y2="311.94" gradientUnits="userSpaceOnUse">
      <stop offset="0" stop-color="#fffccc" stop-opacity="0.5"/>
      <stop offset="1" stop-color="#ffc30f" stop-opacity="0"/>
    </linearGradient>
    <linearGradient id="d" data-name="Namnlös övertoning 84" x1="1293.73" y1="414.49" x2="1571.06" y2="403.32" xlink:href="#b"/>
  </defs>
  <title>header</title>
  <rect class="a" width="1920" height="540"/>
  <path class="b" d="M1920,363.09V540H0V263.24s144.44-35.66,372.05-35.76c207.58-.08,327,66.22,411.4,79.57a185.12,185.12,0,0,1,346.08-18.71c64.75-4.25,129.36-7.27,184.92-6.67C1483.46,283.5,1920,363.09,1920,363.09Z"/>
  <polygon class="c" points="0 351 75 339 275 339 379 442 0 442 0 351"/>
  <g class="d">
    <circle class="e" cx="960" cy="362.62" r="141.47"/>
  </g>
  <circle class="e" cx="960" cy="362.62" r="111.54"/>
  <polygon class="c" points="327 390.5 402 391 419 373 448 442 327 451 327 390.5"/>
  <polygon class="c" points="522 461 628 373 680 373 694 391 839 412 859 398 889 398 898 412 916 381 981 381 998 426 1264 412 1354 381 1386 317 1453 302 1475 254 1502 254 1825.24 254 1844.61 278.98 1847.38 254 1871 254 1920 339 1920 540 522 540 522 461"/>
  <path class="f" d="M0,381c143,0,128,59,258,59s162-35,297-35,204,50,317,50,169,33,309,33,205-83,361-83,378-24,378-24V540H0Z"/>
  <path class="g" d="M0,515s149-40,482-40,430,40,672,40,331-30,766-30v55H0Z"/>
  <polygon class="c" points="448 451 463 391 505 381 534 396 578 397 596 435 448 451"/>
  <g class="h">
    <path class="i" d="M1307.56,242h-83.32a41.66,41.66,0,0,1,83.32,0Z"/>
    <path class="i" d="M1345.4,242h-61.9a32.15,32.15,0,0,1,61.9,0Z"/>
    <path class="i" d="M1404.69,242h-76.48a39.69,39.69,0,0,1,76.48,0Z"/>
    <path class="i" d="M1400,239.86h49a1.07,1.07,0,0,1,1.07,1.07v0a1.07,1.07,0,0,1-1.07,1.07h-49a0,0,0,0,1,0,0v-2.14A0,0,0,0,1,1400,239.86Z"/>
    <rect class="i" x="1457.13" y="239.86" width="22.18" height="2.14" rx="1.07"/>
  </g>
  <path class="c" d="M106.42,121H243.58A31.42,31.42,0,0,1,275,152.42V339a0,0,0,0,1,0,0H75a0,0,0,0,1,0,0V152.42A31.42,31.42,0,0,1,106.42,121Z"/>
  <path class="c" d="M1421.51,138.41h7.7a0,0,0,0,1,0,0v182a0,0,0,0,1,0,0H1404a0,0,0,0,1,0,0V155.91A17.5,17.5,0,0,1,1421.51,138.41Z"/>
  <g class="j">
    <g>
      <path class="i" d="M1720.52,78.66h-65.86a32.93,32.93,0,0,1,65.86,0Z"/>
      <path class="i" d="M1817.1,78.66H1706.41a55.71,55.71,0,0,1,110.69,0Z"/>
      <path class="i" d="M1868.89,78.66h-79.51a44.58,44.58,0,0,1,79.51,0Z"/>
      <path class="i" d="M1904.25,78.66h-50.49a38.45,38.45,0,0,1,11-6.6,39,39,0,0,1,39.47,6.6Z"/>
    </g>
    <rect class="i" x="1896.46" y="76.25" width="23.54" height="2.4"/>
  </g>
  <path class="c" d="M1559.59,36.85h77.48a34.59,34.59,0,0,1,34.59,34.59V254a0,0,0,0,1,0,0H1525a0,0,0,0,1,0,0V71.44a34.59,34.59,0,0,1,34.59-34.59Z"/>
  <path class="c" d="M1721.6,121H1767a22.26,22.26,0,0,1,22.26,22.26V254a0,0,0,0,1,0,0h-89.93a0,0,0,0,1,0,0V143.26A22.26,22.26,0,0,1,1721.6,121Z"/>
  <g>
    <rect class="f" x="407.51" y="309.34" width="15.04" height="138.49" rx="7.52"/>
    <path class="f" d="M419.33,387.83a20.19,20.19,0,0,0,14.1-5.66c7.19-6.74,10.84-18.58,10.84-35.18,0-4.77-3.13-8.63-7-8.63s-7,3.86-7,8.63c0,10.67-1.81,18.06-5.23,21.36s-8.18,1.91-8.23,1.89l.09,0-3.75,16.63A19.77,19.77,0,0,0,419.33,387.83Z"/>
    <path class="f" d="M410.58,409.24a22.29,22.29,0,0,0,6.07-.79l-3.24-16.79.07,0c-.07,0-6.12,1.59-10.15-2.41-3.88-3.86-4.69-11.91-4.69-18,0-4.77-3.13-8.63-7-8.63s-7,3.86-7,8.63c0,14.44,3.39,25.07,10.08,31.58A22.23,22.23,0,0,0,410.58,409.24Z"/>
  </g>
  <path class="k" d="M442.54,366.25c-73.5,9.33-111-25.79-125.61-31.4s-39.25-14.58-61.68-13.46-40.37,20.19-75.13,21.31S66.85,299,66.85,299L33.21,404.38s15.7-30.28,55-24.67,32.52,13.46,44.86,14.58,23.55-23.55,34.76-20.19,25.79,22.43,32.52,22.43,21.31-9,30.28-9,28,14.58,43.74,16.82,39.25-14.58,52.71-15.7,32.52,6.73,51.58,5.61S442.54,366.25,442.54,366.25Z"/>
  <g>
    <rect class="g" x="150" y="285.9" width="39.5" height="221.6" rx="19.75"/>
    <path class="l" d="M169.75,396.7s58.41,12.22,58.41-50.56"/>
    <path class="l" d="M169.75,431.06s-61.42,11-61.42-46.1"/>
  </g>
  <path class="m" d="M1920,284.57v79.06a222,222,0,0,1-22.89,2c-51.72,1.48-57.92-28.22-115.84-26.73-38.12,1-98.41,4.14-153.32-1.87-28.53-3.13-55.47-16.88-77.38-17.39-64.12-1.48-106.47,4.41-106.47,4.41,82.74-19.3,142.73-26.73,200.65-20.79s82.74-37.12,138.59-38.61,55.85,28.22,97.22,29.7C1896.07,294.89,1908.38,290.44,1920,284.57Z"/>
  <g>
    <rect class="g" x="1629.92" y="138.41" width="49.46" height="369.09" rx="19.75"/>
    <path class="g" d="M1640.54,347.59c-13,0-30.39-2.94-46.37-15.07-23.66-18-35.65-49.53-35.65-93.77a23,23,0,0,1,46,0c0,28.45,6,48.13,17.21,56.93s26.88,5.08,27,5l-.28.08,12.33,44.32A79.77,79.77,0,0,1,1640.54,347.59Z"/>
    <path class="g" d="M1669.3,404.64a90.79,90.79,0,0,1-20-2.08L1660,357.81l-.2-.05c.2.05,20.11,4.23,33.35-6.44,12.76-10.28,15.44-31.73,15.44-47.91a23,23,0,0,1,46,0c0,38.48-11.15,66.8-33.13,84.17C1703.83,401.49,1683.83,404.64,1669.3,404.64Z"/>
  </g>
  <g>
    <rect class="f" x="1428.77" y="330.33" width="15.62" height="116.56" rx="6.24"/>
    <path class="f" d="M1432.12,396.39a24,24,0,0,1-14.64-4.76C1410,386,1406.22,376,1406.22,362a7.27,7.27,0,0,1,14.53,0c0,9.06,1.91,15.3,5.52,18.05s8.32,1.56,8.37,1.55a7.27,7.27,0,0,1,3.89,14A25.72,25.72,0,0,1,1432.12,396.39Z"/>
  </g>
  <polygon class="g" points="85.66 506.07 45.62 482.43 0 479.68 0 540 85.66 506.07"/>
  <polygon class="g" points="156.83 498.12 141.82 467.29 143.84 482.71 132.89 479.68 150 498.12 156.83 498.12"/>
  <path class="g" d="M1425.31,502.82"/>
  <circle class="g" cx="1425.31" cy="502.82" r="21.5"/>
  <circle class="g" cx="1464.59" cy="500" r="28.54"/>
  <g class="n">
    <path class="i" d="M282.66,171.16a41.94,41.94,0,0,1-.51,6.58H199.47a41.86,41.86,0,1,1,83.19-6.58Z"/>
    <path class="i" d="M365.88,171.16a53,53,0,0,1-.41,6.58H258.15a53,53,0,0,1-.4-6.58,54.07,54.07,0,1,1,108.13,0Z"/>
    <path class="i" d="M410.61,177.74H333.49a39.4,39.4,0,0,1,77.12,0Z"/>
    <path class="i" d="M404.14,174.25h92a1.74,1.74,0,0,1,1.74,1.74v0a1.74,1.74,0,0,1-1.74,1.74h-92a0,0,0,0,1,0,0v-3.49a0,0,0,0,1,0,0Z"/>
  </g>
  <path class="o" d="M1571.81,392.71c-27.63,8.09-40.43-5.39-67.38-9.43s-46.5,24.26-72.77,23.58-38.41-18.19-55.25-18.86-18.2,22.91-43.13,23.58a111.18,111.18,0,0,1-45.14-8.76l5.39,35s55.25-4.05,82.88-15.5,29.64,4,37.73,6.06,14.82,2.7,28.3-5.39,32.34-6.73,41.77-4.71,60.12-5.88,68.21-9.92S1571.81,392.71,1571.81,392.71Z"/>
</svg>
